# xmcd CD database file
#
# Track frame offsets:
#	150
#	12780
#	26727
#	41717
#	59367
#	86685
#	104917
#	126270
#	156757
#	184772
#	199155
#	233837
#	264807
#	293020
#
# Disc length: 4426 seconds
#
# Revision: 0
# Processed by: cddbd v1.5.1PL0 Copyright (c) Steve Scherf et al.
# Submitted via: CDex 1.51
#
DISCID=c111480e
DTITLE=Various Artist - Contemporary Story - Musica Jazz all. 8-9
DYEAR=1900
DGENRE=Jazz
TTITLE0=Shelly Manne - Fugue
TTITLE1=Howard Rumsey - Aquarium
TTITLE2=Lennie Niehaus - Circling The Blues
TTITLE3=Red Norvo - Red Sails
TTITLE4=Curtis Counce - Counceltation
TTITLE5=Barney Kessel - On Green Dolphin Street
TTITLE6=Shelly Manne - Queen's Pawn
TTITLE7=Hampton Hawes - Crazeology
TTITLE8=Sonny Rollings - The Song is You
TTITLE9=Ornette Coleman - Tomorrow is The Question!
TTITLE10=Cecil Taylor - Toll
TTITLE11=Teddy Edwards - Blues In G
TTITLE12=Frank Morgan - Embraceable You
TTITLE13=Tom Herrell - Glass Mystery
EXTD=
EXTT0=
EXTT1=
EXTT2=
EXTT3=
EXTT4=
EXTT5=
EXTT6=
EXTT7=
EXTT8=
EXTT9=
EXTT10=
EXTT11=
EXTT12=
EXTT13=
PLAYORDER=
